<?xml version="1.0" encoding="UTF-8" standalone="no"?>
<!-- Created with Inkscape (http://www.inkscape.org/) -->

<svg
   xmlns:dc="http://purl.org/dc/elements/1.1/"
   xmlns:cc="http://creativecommons.org/ns#"
   xmlns:rdf="http://www.w3.org/1999/02/22-rdf-syntax-ns#"
   xmlns:svg="http://www.w3.org/2000/svg"
   xmlns="http://www.w3.org/2000/svg"
   xmlns:sodipodi="http://sodipodi.sourceforge.net/DTD/sodipodi-0.dtd"
   xmlns:inkscape="http://www.inkscape.org/namespaces/inkscape"
   height="392.87"
   width="710.54199"
   viewBox="0 0 710.54199 392.86999"
   id="svg3367"
   version="1.1"
   inkscape:version="0.91 r13725"
   sodipodi:docname="Comuns_Logo.svg">
  <defs
     id="defs3373" />
  <sodipodi:namedview
     pagecolor="#ffffff"
     bordercolor="#666666"
     borderopacity="1"
     objecttolerance="10"
     gridtolerance="10"
     guidetolerance="10"
     inkscape:pageopacity="0"
     inkscape:pageshadow="2"
     inkscape:window-width="1422"
     inkscape:window-height="908"
     id="namedview3371"
     showgrid="false"
     inkscape:zoom="0.22425739"
     inkscape:cx="355.271"
     inkscape:cy="196.43504"
     inkscape:window-x="0"
     inkscape:window-y="0"
     inkscape:window-maximized="0"
     inkscape:current-layer="svg3367"
     fit-margin-top="50"
     fit-margin-left="50"
     fit-margin-right="50"
     fit-margin-bottom="50"
     units="px" />
  <metadata
     id="metadata3369">
    <rdf:RDF>
      <cc:Work
         rdf:about="">
        <dc:format>image/svg+xml</dc:format>
        <dc:type
           rdf:resource="http://purl.org/dc/dcmitype/StillImage" />
        <dc:title></dc:title>
      </cc:Work>
    </rdf:RDF>
  </metadata>
  <g
     transform="translate(22.064,4.936)"
     id="g55">
    <path
       inkscape:connector-curvature="0"
       d="m 36.866,110.007 0,-41.615 c 0,-1.583 -2.304,-4.031 -4.032,-4.031 l -3.6,0 0,-18.432 51.263,0 0,18.431 -9.936,0 0,47.375 c 0,10.655 4.32,15.264 13.824,15.264 9.647,0 13.968,-4.608 13.968,-15.264 l 0,-47.375 -9.937,0 0,-18.431 42.768,0 0,18.431 -3.6,0 c -1.584,0 -3.889,2.448 -3.889,4.031 l 0,41.615 c 0,25.056 -14.256,37.872 -43.055,37.872 -29.23,0.001 -43.774,-12.816 -43.774,-37.871 z"
       id="path57" />
    <path
       inkscape:connector-curvature="0"
       d="m 134.64,129.015 3.6,0 c 1.44,0 3.6,-2.304 3.6,-3.6 l 0,-32.256 c 0,-1.439 -2.159,-3.6 -3.6,-3.6 l -4.032,0 0,-18.863 32.976,0 c 2.88,0 6.048,1.728 6.048,13.968 l 0,44.351 8.496,0 0,17.712 -47.088,0 0,-17.712 z m 42.911,-36.287 0,-15.696 c 5.903,-4.608 13.248,-7.776 22.607,-7.776 10.08,0 19.584,4.176 19.584,18.144 l 0,38.016 c 0,1.439 2.159,3.6 3.6,3.6 l 2.304,0 0,17.712 -37.295,0 0,-47.233 c 0,-5.615 -2.736,-6.768 -9.216,-6.768 l -1.584,0 z"
       id="path59" />
    <path
       inkscape:connector-curvature="0"
       d="m 299.513,129.015 10.655,0 0,17.712 -52.558,0 0,-17.712 4.176,0 c 1.728,0 4.032,-2.592 4.032,-4.176 l 0,-56.447 c 0,-1.583 -2.305,-4.031 -4.032,-4.031 l -4.176,0 0,-18.432 41.903,0 0,83.086 z m 4.32,-18.287 0,-17.856 0.576,0 c 9.072,0 12.384,-5.761 12.384,-13.681 0,-8.063 -3.312,-13.535 -12.384,-13.535 l -0.576,0 0,-19.727 2.88,0 c 29.52,0 43.199,9.647 43.199,32.399 0,22.319 -15.407,32.399 -44.639,32.399 l -1.44,0 z"
       id="path61" />
    <path
       inkscape:connector-curvature="0"
       d="m 388.789,129.879 2.592,12.815 c -5.184,3.889 -11.808,5.04 -17.711,5.04 -12.672,0 -23.616,-7.056 -23.616,-21.743 0,-16.56 11.664,-23.76 29.52,-23.76 3.601,0 6.624,0.144 9.504,0.432 l 0,13.104 c -0.576,-0.145 -1.151,-0.145 -1.728,-0.145 -5.04,0 -7.776,1.872 -7.776,7.488 0,5.472 3.024,6.911 6.912,6.911 0.863,0.001 1.583,0.001 2.303,-0.142 z m 4.608,-31.247 c 0,-5.328 -2.88,-7.776 -10.224,-7.776 -7.776,0 -11.809,2.736 -14.832,5.185 l -13.104,0 0,-21.457 c 8.063,-2.88 20.016,-5.328 35.567,-5.328 23.903,0 34.126,7.92 34.126,25.775 l 0,30.384 c 0,1.439 2.016,3.6 3.457,3.6 l 2.447,0 0,14.976 c -4.463,2.448 -10.512,4.032 -18,4.032 -9.792,0 -19.439,-3.168 -19.439,-19.439 l 0,-29.952 z"
       id="path63" />
    <path
       inkscape:connector-curvature="0"
       d="m 435.73,129.015 3.744,0 c 1.439,0 3.455,-2.16 3.455,-3.6 l 0,-32.256 c 0,-1.296 -2.016,-3.6 -3.455,-3.6 l -4.176,0 0,-18.863 34.703,0 c 2.881,0 4.465,2.592 4.465,7.344 l 0,47.375 c 0,1.439 2.158,3.6 3.6,3.6 l 3.744,0 0,17.712 -46.08,0 0,-17.712 z m 14.688,-83.951 28.656,0 0,8.063 -14.4,12.528 -17.711,0 3.455,-20.591 z"
       id="path65" />
    <path
       inkscape:connector-curvature="0"
       d="m 518.096,148.022 0,-18.575 c 4.32,-0.145 7.199,-1.729 7.199,-4.608 0,-3.168 -2.447,-3.888 -12.24,-4.896 -16.559,-1.872 -26.207,-7.92 -26.207,-25.056 0,-17.424 13.393,-25.487 34.703,-25.632 l 0,18.432 c -5.184,0.288 -6.912,1.729 -6.912,4.032 0,2.592 2.305,3.6 11.377,4.752 18.863,2.304 28.512,6.624 28.512,24.335 0,17.712 -10.656,27.216 -36,27.216 l -0.432,0 z m -4.321,-18.575 0,18.575 c -12.527,-0.288 -20.736,-2.16 -26.783,-4.176 l 0,-21.168 16.559,0 c 1.873,3.457 5.76,6.049 10.224,6.769 z m 12.096,-41.759 0,-18.432 c 11.52,0.288 19.152,1.872 25.775,3.888 l 0,19.872 -16.416,0 c -2.015,-2.737 -5.039,-4.752 -9.359,-5.328 z"
       id="path67" />
    <path
       inkscape:connector-curvature="0"
       d="m 71.423,247.303 0,18.72 c -32.832,-0.864 -43.487,-15.119 -43.487,-38.879 0,-23.616 14.688,-38.88 38.879,-39.888 l 0,18.288 c -4.176,0.576 -7.632,5.472 -7.632,20.735 0,15.984 3.456,20.159 12.24,21.024 z m -7.631,-28.656 13.823,0 c -0.144,-9.359 -2.448,-12.527 -6.479,-13.248 l 0,-18.144 c 24.335,0.72 35.855,12.816 35.855,38.735 0,3.6 -0.288,6.48 -0.288,7.488 l -42.911,0 0,-14.831 z m 11.951,47.375 0,-18.863 c 5.616,-0.288 9.216,-2.88 11.664,-6.336 l 16.56,0 0,18.287 c -6.337,3.601 -16.129,6.481 -28.224,6.912 z"
       id="path69" />
    <path
       inkscape:connector-curvature="0"
       d="m 111.453,247.015 3.6,0 c 1.44,0 3.6,-2.304 3.6,-3.6 l 0,-32.256 c 0,-1.439 -2.159,-3.6 -3.6,-3.6 l -4.032,0 0,-18.863 32.976,0 c 2.88,0 6.048,1.728 6.048,13.968 l 0,44.351 8.496,0 0,17.712 -47.087,0 0,-17.712 z m 42.911,-36.287 0,-15.695 c 5.903,-4.608 13.248,-7.776 22.607,-7.776 10.08,0 19.584,4.176 19.584,18.144 l 0,38.016 c 0,1.439 2.159,3.6 3.6,3.6 l 2.304,0 0,17.712 -37.295,0 0,-47.231 c 0,-5.615 -2.736,-6.768 -9.216,-6.768 l -1.584,0 z"
       id="path71" />
    <path
       inkscape:connector-curvature="0"
       d="m 227.367,215.336 c 0,-34.271 18.576,-52.56 49.535,-52.56 3.744,0 7.488,0.288 10.656,1.152 l 0,20.88 -3.601,0 c -12.672,0 -20.447,7.056 -20.447,29.087 0,19.296 4.607,29.231 16.271,30.384 l 0,22.031 -0.72,0 c -33.694,10e-4 -51.694,-17.855 -51.694,-50.974 z m 56.735,50.975 0,-22.031 c 7.056,-0.721 12.815,-4.752 16.271,-10.08 l 16.703,0 0,21.743 c -8.063,5.472 -19.87,9.503 -32.974,10.368 z m 7.775,-81.502 0,-20.88 24.768,0 0,35.999 -21.455,0 -3.313,-15.119 z"
       id="path73" />
    <path
       inkscape:connector-curvature="0"
       d="m 363.156,187.256 0,20.735 c -5.473,0.864 -8.784,7.2 -8.784,19.296 0,12.24 3.312,18.864 8.784,19.872 l 0,18.863 c -23.76,-0.864 -40.607,-15.407 -40.607,-38.879 -10e-4,-23.616 16.847,-39.023 40.607,-39.887 z m 4.319,78.766 0,-18.863 c 5.184,-1.008 8.64,-7.632 8.64,-19.872 0,-12.096 -3.456,-18.432 -8.64,-19.296 l 0,-20.735 c 23.615,0.864 40.464,16.271 40.464,39.888 0,23.471 -16.849,38.014 -40.464,38.878 z"
       id="path75" />
    <path
       inkscape:connector-curvature="0"
       d="m 411.829,247.015 3.6,0 c 1.44,0 3.6,-2.304 3.6,-3.6 l 0,-32.256 c 0,-1.439 -2.159,-3.6 -3.6,-3.6 l -4.032,0 0,-18.863 32.975,0 c 2.881,0 6.049,1.728 6.049,13.968 l 0,44.351 8.496,0 0,17.712 -47.087,0 0,-17.712 z m 42.911,-36.287 0,-15.552 c 5.184,-4.464 11.664,-7.92 20.879,-7.92 12.096,0 19.439,5.616 19.439,18.288 l 0,41.471 6.768,0 0,17.712 -38.158,0 0,-47.375 c 0,-5.616 -1.152,-6.624 -7.633,-6.624 l -1.295,0 z m 44.639,0 0,-15.552 c 5.328,-4.607 11.664,-7.92 20.879,-7.92 9.936,0 19.439,4.176 19.439,18.144 l 0,38.016 c 0,1.439 2.16,3.6 3.602,3.6 l 2.303,0 0,17.712 -37.439,0 0,-47.375 c 0,-5.616 -1.008,-6.624 -7.488,-6.624 l -1.296,0 z"
       id="path77" />
    <path
       inkscape:connector-curvature="0"
       d="m 595.855,243.271 0,15.408 c -5.76,4.464 -12.527,7.344 -22.031,7.344 -10.08,0 -20.16,-4.176 -20.16,-18.144 l 0,-36.72 c 0,-1.439 -2.16,-3.6 -3.455,-3.6 l -3.025,0 0,-18.863 38.016,0 0,47.375 c 0,5.903 3.025,7.199 9.361,7.199 l 1.294,0 z m -10.943,-80.207 28.654,0 0,8.063 -14.398,12.528 -17.713,0 3.457,-20.591 z m 15.264,44.496 -7.633,0 0,-18.863 39.168,0 0,54.719 c 0,1.296 2.016,3.6 3.455,3.6 l 3.312,0 0,17.712 -32.256,0 c -2.879,0 -6.047,-2.304 -6.047,-13.968 l 0,-43.2 z"
       id="path79" />
    <path
       inkscape:connector-curvature="0"
       d="m 34.834,306.521 3.737,0 1.068,-6.941 6.051,0 -1.067,6.941 3.07,0 1.023,-6.941 6.051,0 -1.023,6.941 2.804,0 0,6.362 -3.738,0 -0.489,3.471 2.804,0 0,6.363 -3.738,0 -1.156,8.009 -6.052,0 1.157,-8.009 -3.026,0 -1.157,8.009 -6.051,0 1.156,-8.009 -2.848,0 0,-6.363 3.782,0 0.489,-3.471 -2.848,0 0,-6.362 z m 8.411,9.833 3.025,0 0.489,-3.471 -3.025,0 -0.489,3.471 z"
       id="path81" />
    <path
       inkscape:connector-curvature="0"
       d="m 83.736,307.233 0,23.493 -6.986,0 c -1.514,0 -2.314,-0.4 -2.67,-3.204 -2.003,1.869 -4.36,3.604 -7.965,3.604 -3.826,0 -6.896,-1.646 -6.896,-7.208 l 0,-16.686 9.878,0 0,14.639 c 0,1.78 0.935,2.136 2.759,2.136 0.667,0 1.424,-0.134 2.002,-0.312 l 0,-16.463 9.878,0 z"
       id="path83" />
    <path
       inkscape:connector-curvature="0"
       d="m 87.609,330.727 0,-23.493 7.03,0 c 1.469,0 2.314,0.489 2.67,3.293 1.958,-1.958 4.628,-3.738 8.365,-3.738 3.648,0 6.451,1.603 6.451,6.808 l 0,17.131 -9.877,0 0,-14.505 c 0,-1.691 -0.802,-2.047 -2.626,-2.047 -0.756,0 -1.513,0.133 -2.091,0.267 l 0,16.285 -9.922,0 z"
       id="path85" />
    <path
       inkscape:connector-curvature="0"
       d="m 125.522,328.991 0,8.943 -9.923,0 0,-30.701 7.03,0 c 1.38,0 2.181,0.4 2.581,2.803 1.735,-1.957 3.96,-3.248 7.208,-3.248 4.36,0 8.632,2.67 8.632,11.436 0,9.077 -4.716,12.325 -9.922,12.325 -2.492,0 -4.271,-0.534 -5.606,-1.558 z m 2.047,-4.449 c 1.958,0 3.471,-0.935 3.471,-5.473 0,-4.183 -1.469,-5.117 -3.382,-5.117 -0.623,0 -1.424,0.178 -2.136,0.4 l 0,9.7 c 0.534,0.312 1.157,0.49 2.047,0.49 z"
       id="path87" />
    <path
       inkscape:connector-curvature="0"
       d="m 156.759,328.636 c -1.646,1.69 -3.781,2.402 -6.585,2.402 -3.871,0 -7.297,-2.225 -7.297,-6.941 0,-4.983 3.604,-7.208 9.121,-7.208 1.646,0 3.025,0.089 4.271,0.312 l 0,-0.846 c 0,-1.913 -0.979,-2.625 -3.604,-2.625 -2.092,0 -3.871,0.578 -4.939,1.201 l -3.159,0 0,-6.318 c 2.136,-0.89 5.829,-1.824 10.323,-1.824 7.697,0 11.257,2.536 11.257,8.854 l 0,15.084 -6.496,0 c -1.69,0 -2.491,-0.801 -2.892,-2.091 z m -0.489,-3.694 0,-3.693 c -0.578,-0.089 -1.29,-0.178 -1.824,-0.178 -1.513,0 -2.358,0.712 -2.358,2.402 0,1.603 0.979,2.181 2.136,2.181 0.711,0 1.468,-0.311 2.046,-0.712 z"
       id="path89" />
    <path
       inkscape:connector-curvature="0"
       d="m 169.621,330.727 0,-23.493 6.541,0 c 2.803,0 3.337,0.801 3.337,4.672 l 0,18.821 -9.878,0 z m 0.045,-28.611 c 0,-2.536 2.002,-4.183 4.895,-4.183 2.892,0 4.894,1.646 4.894,4.183 0,2.537 -2.002,4.139 -4.894,4.139 -2.894,0 -4.895,-1.603 -4.895,-4.139 z"
       id="path91" />
    <path
       inkscape:connector-curvature="0"
       d="m 183.148,329.303 0,-5.873 3.471,0 c 0.801,0.756 2.803,1.513 5.027,1.513 1.602,0 2.893,-0.223 2.893,-1.112 0,-0.979 -0.801,-1.068 -3.96,-1.558 -4.806,-0.667 -7.742,-2.18 -7.742,-7.475 0,-5.562 4.583,-7.965 10.634,-7.965 4.139,0 6.452,0.578 8.677,1.424 l 0,5.784 -3.293,0 c -1.023,-0.667 -2.625,-1.246 -4.894,-1.246 -1.869,0 -2.581,0.356 -2.581,1.112 0,0.801 0.846,1.023 3.648,1.38 5.339,0.623 8.365,2.047 8.365,7.386 0,5.384 -3.737,8.41 -11.391,8.41 -4.36,0 -6.896,-0.846 -8.854,-1.78 z"
       id="path93" />
    <path
       inkscape:connector-curvature="0"
       d="m 215.453,321.116 c 0.4,2.937 1.869,3.737 4.627,3.737 2.626,0 4.45,-0.668 5.695,-1.424 l 3.159,0 0,5.384 c -2.313,1.246 -5.25,2.313 -10.411,2.313 -8.811,0 -12.993,-4.583 -12.993,-12.014 0,-7.52 4.895,-12.325 12.682,-12.325 7.831,0 11.702,3.96 11.702,12.147 0,1.112 -0.089,1.869 -0.089,2.181 l -14.372,0 z m -0.045,-4.539 5.429,0 c -0.134,-2.937 -0.979,-3.826 -2.625,-3.826 -1.38,0 -2.493,0.667 -2.804,3.826 z"
       id="path95" />
    <path
       inkscape:connector-curvature="0"
       d="m 232.585,330.727 0,-23.493 7.03,0 c 1.469,0 2.314,0.489 2.67,3.293 1.958,-1.958 4.628,-3.738 8.365,-3.738 3.648,0 6.451,1.603 6.451,6.808 l 0,17.131 -9.877,0 0,-14.505 c 0,-1.691 -0.802,-2.047 -2.626,-2.047 -0.756,0 -1.513,0.133 -2.091,0.267 l 0,16.285 -9.922,0 z"
       id="path97" />
    <path
       inkscape:connector-curvature="0"
       d="m 259.908,319.069 c 0,-7.787 5.251,-12.281 13.616,-12.281 3.159,0 6.051,0.757 7.831,1.691 l 0,6.273 -3.382,0 c -0.757,-0.578 -1.913,-1.157 -3.648,-1.157 -2.67,0 -4.36,1.646 -4.36,5.562 0,3.737 1.513,5.473 4.227,5.473 1.958,0 3.07,-0.667 3.96,-1.38 l 3.248,0 0,5.785 c -1.558,0.979 -4.449,2.091 -8.498,2.091 -8.1,0.001 -12.994,-4.004 -12.994,-12.057 z"
       id="path99" />
    <path
       inkscape:connector-curvature="0"
       d="m 283.537,319.113 c 0,-7.52 5.474,-12.325 13.126,-12.325 7.653,0 13.126,4.806 13.126,12.325 0,7.476 -5.473,12.014 -13.126,12.014 -7.653,0 -13.126,-4.538 -13.126,-12.014 z m 16.241,0.045 c 0,-4.139 -1.157,-5.874 -3.115,-5.874 -1.957,0 -3.159,1.735 -3.159,5.874 0,4.138 1.202,5.918 3.159,5.918 1.958,0 3.115,-1.78 3.115,-5.918 z"
       id="path101" />
    <path
       inkscape:connector-curvature="0"
       d="m 312.683,330.727 0,-23.493 7.03,0 c 1.469,0 2.314,0.489 2.67,3.382 1.958,-2.225 4.494,-3.827 7.92,-3.827 2.804,0 5.117,0.979 6.007,3.738 2.047,-2.225 4.761,-3.738 8.099,-3.738 3.604,0 6.362,1.691 6.362,6.808 l 0,17.131 -9.878,0 0,-14.505 c 0,-1.691 -0.756,-2.047 -2.536,-2.047 -0.623,0 -1.157,0.089 -1.646,0.223 l 0,16.329 -9.922,0 0,-14.505 c 0,-1.691 -0.757,-2.047 -2.536,-2.047 -0.623,0 -1.157,0.089 -1.646,0.178 l 0,16.374 -9.924,0 z"
       id="path103" />
    <path
       inkscape:connector-curvature="0"
       d="m 378.94,307.233 0,23.493 -6.985,0 c -1.514,0 -2.314,-0.4 -2.67,-3.204 -2.002,1.869 -4.36,3.604 -7.965,3.604 -3.826,0 -6.896,-1.646 -6.896,-7.208 l 0,-16.686 9.878,0 0,14.639 c 0,1.78 0.935,2.136 2.759,2.136 0.667,0 1.424,-0.134 2.002,-0.312 l 0,-16.463 9.877,0 z"
       id="path105" />
  </g>
</svg>
