<?xml version="1.0" encoding="utf-8"?>
<!-- Generator: Adobe Illustrator 16.0.0, SVG Export Plug-In . SVG Version: 6.00 Build 0)  -->
<!DOCTYPE svg PUBLIC "-//W3C//DTD SVG 1.1//EN" "http://www.w3.org/Graphics/SVG/1.1/DTD/svg11.dtd">
<svg version="1.1" id="Capa_1" xmlns="http://www.w3.org/2000/svg" xmlns:xlink="http://www.w3.org/1999/xlink" x="0px" y="0px"
	 width="841.89px" height="595.28px" viewBox="0 0 841.89 595.28" enable-background="new 0 0 841.89 595.28" xml:space="preserve">
<g>
	<path d="M-943.189,129.372v20.88c-31.392-0.145-45.791-12.24-45.791-37.872V70.765c0-1.583-2.305-4.031-4.032-4.031h-3.6V48.302
		h51.263v18.432h-9.936v47.375C-955.285,124.332-951.541,128.796-943.189,129.372z M-938.87,150.252v-20.88
		c7.776-0.72,11.376-5.616,11.376-15.264V66.733h-9.936V48.302h42.768v18.432h-3.601c-1.584,0-3.888,2.448-3.888,4.031v41.615
		C-902.15,136.284-914.965,149.1-938.87,150.252z"/>
	<path d="M-891.495,131.388h3.6c1.44,0,3.6-2.304,3.6-3.6V95.532c0-1.439-2.159-3.6-3.6-3.6h-4.032V73.069h32.976
		c2.88,0,6.048,1.728,6.048,13.968v44.351h8.496V149.1h-47.087V131.388z M-848.583,95.101V79.405
		c5.903-4.608,13.248-7.776,22.607-7.776c10.08,0,19.584,4.176,19.584,18.144v38.016c0,1.439,2.159,3.6,3.6,3.6h2.304V149.1h-37.295
		v-47.231c0-5.615-2.736-6.768-9.216-6.768H-848.583z"/>
	<path d="M-954.708,249.388h10.655V267.1h-52.559v-17.712h4.176c1.728,0,4.032-2.592,4.032-4.176v-56.447
		c0-1.583-2.305-4.031-4.032-4.031h-4.176v-18.432h41.903V249.388z M-950.389,231.101v-17.855h0.576
		c9.072,0,12.384-5.761,12.384-13.681c0-8.063-3.312-13.535-12.384-13.535h-0.576v-19.728h2.88c29.52,0,43.199,9.647,43.199,32.399
		c0,22.319-15.407,32.399-44.639,32.399H-950.389z"/>
	<path d="M-865.433,250.252l2.592,12.815c-5.184,3.889-11.808,5.04-17.711,5.04c-12.672,0-23.616-7.056-23.616-21.743
		c0-16.56,11.664-23.76,29.52-23.76c3.601,0,6.624,0.144,9.504,0.432v13.104c-0.576-0.145-1.151-0.145-1.728-0.145
		c-5.04,0-7.776,1.872-7.776,7.488c0,5.472,3.024,6.911,6.912,6.911C-866.873,250.396-866.153,250.396-865.433,250.252z
		 M-860.825,219.005c0-5.328-2.88-7.776-10.224-7.776c-7.776,0-11.809,2.736-14.832,5.185h-13.104v-21.456
		c8.063-2.88,20.016-5.328,35.567-5.328c23.903,0,34.127,7.92,34.127,25.775v30.384c0,1.439,2.016,3.6,3.456,3.6h2.448v14.976
		c-4.465,2.448-10.513,4.032-18,4.032c-9.792,0-19.439-3.168-19.439-19.439V219.005z"/>
	<path d="M-818.491,249.388h3.744c1.439,0,3.455-2.16,3.455-3.6v-32.256c0-1.296-2.016-3.6-3.455-3.6h-4.177v-18.863h34.704
		c2.88,0,4.464,2.592,4.464,7.344v47.375c0,1.439,2.159,3.6,3.6,3.6h3.744V267.1h-46.079V249.388z M-803.803,165.438h28.655v8.063
		l-14.399,12.528h-17.712L-803.803,165.438z"/>
	<path d="M-736.126,268.396V249.82c4.32-0.145,7.2-1.729,7.2-4.608c0-3.168-2.448-3.888-12.24-4.896
		c-16.56-1.872-26.207-7.92-26.207-25.056c0-17.424,13.392-25.487,34.703-25.632v18.432c-5.184,0.288-6.912,1.729-6.912,4.032
		c0,2.592,2.305,3.6,11.376,4.752c18.863,2.304,28.512,6.624,28.512,24.335c0,17.712-10.656,27.216-36,27.216H-736.126z
		 M-740.446,249.82v18.575c-12.528-0.288-20.736-2.16-26.784-4.176v-21.168h16.56C-748.798,246.508-744.911,249.1-740.446,249.82z
		 M-728.35,208.061v-18.432c11.52,0.288,19.151,1.872,25.775,3.888v19.872h-16.416C-721.006,210.652-724.031,208.637-728.35,208.061
		z"/>
	<path d="M-953.413,348.676v18.72c-32.832-0.864-43.487-15.119-43.487-38.879c0-23.616,14.688-38.88,38.879-39.888v18.288
		c-4.176,0.576-7.632,5.472-7.632,20.735C-965.653,343.636-962.197,347.812-953.413,348.676z M-961.044,320.021h13.823
		c-0.144-9.359-2.448-12.527-6.479-13.248v-18.144c24.335,0.72,35.855,12.816,35.855,38.735c0,3.6-0.288,6.48-0.288,7.488h-42.911
		V320.021z M-949.093,367.396v-18.863c5.616-0.288,9.216-2.88,11.664-6.336h16.56v18.287
		C-927.206,364.084-936.998,366.964-949.093,367.396z"/>
	<path d="M-913.383,348.388h3.6c1.44,0,3.6-2.304,3.6-3.6v-32.256c0-1.439-2.159-3.6-3.6-3.6h-4.032v-18.863h32.976
		c2.88,0,6.048,1.728,6.048,13.968v44.351h8.496V366.1h-47.087V348.388z M-870.472,312.101v-15.695
		c5.903-4.608,13.248-7.776,22.607-7.776c10.08,0,19.584,4.176,19.584,18.144v38.016c0,1.439,2.159,3.6,3.6,3.6h2.304V366.1h-37.295
		v-47.231c0-5.615-2.736-6.768-9.216-6.768H-870.472z"/>
	<path d="M-996.468,437.709c0-34.271,18.576-52.56,49.535-52.56c3.744,0,7.488,0.288,10.656,1.152v20.88h-3.601
		c-12.672,0-20.447,7.056-20.447,29.087c0,19.296,4.607,29.231,16.271,30.384v22.031h-0.72
		C-978.468,488.684-996.468,470.828-996.468,437.709z M-939.733,488.684v-22.031c7.056-0.721,12.815-4.752,16.271-10.08h16.703
		v21.743C-914.822,483.788-926.629,487.819-939.733,488.684z M-931.958,407.182v-20.88h24.768v35.999h-21.455L-931.958,407.182z"/>
	<path d="M-860.679,409.629v20.735c-5.473,0.864-8.784,7.2-8.784,19.296c0,12.24,3.312,18.864,8.784,19.872v18.863
		c-23.76-0.864-40.607-15.407-40.607-38.879C-901.287,425.9-884.439,410.493-860.679,409.629z M-856.36,488.396v-18.863
		c5.184-1.008,8.64-7.632,8.64-19.872c0-12.096-3.456-18.432-8.64-19.296v-20.735c23.615,0.864,40.463,16.271,40.463,39.888
		C-815.897,472.988-832.745,487.531-856.36,488.396z"/>
	<path d="M-812.006,469.388h3.6c1.44,0,3.6-2.304,3.6-3.6v-32.256c0-1.439-2.159-3.6-3.6-3.6h-4.032v-18.863h32.976
		c2.88,0,6.048,1.728,6.048,13.968v44.351h8.496V487.1h-47.087V469.388z M-769.095,433.101v-15.552
		c5.184-4.464,11.664-7.92,20.88-7.92c12.096,0,19.439,5.616,19.439,18.288v41.471h6.768V487.1h-38.159v-47.375
		c0-5.616-1.152-6.624-7.632-6.624H-769.095z M-724.457,433.101v-15.552c5.328-4.607,11.664-7.92,20.88-7.92
		c9.936,0,19.439,4.176,19.439,18.144v38.016c0,1.439,2.16,3.6,3.6,3.6h2.305V487.1h-37.439v-47.375
		c0-5.616-1.008-6.624-7.488-6.624H-724.457z"/>
	<path d="M-627.979,465.644v15.408c-5.761,4.464-12.528,7.344-22.032,7.344c-10.079,0-20.159-4.176-20.159-18.144v-36.72
		c0-1.439-2.16-3.6-3.456-3.6h-3.024v-18.863h38.016v47.375c0,5.903,3.024,7.199,9.36,7.199H-627.979z M-638.923,385.438h28.655
		v8.063l-14.399,12.528h-17.712L-638.923,385.438z M-623.66,429.933h-7.632v-18.863h39.167v54.719c0,1.296,2.017,3.6,3.456,3.6
		h3.312V487.1h-32.256c-2.88,0-6.048-2.304-6.048-13.968V429.933z"/>
	<path d="M-993.053,522.895h3.738l1.067-6.941h6.052l-1.068,6.941h3.07l1.023-6.941h6.051l-1.023,6.941h2.804v6.362h-3.737
		l-0.49,3.471h2.804v6.363h-3.737l-1.157,8.009h-6.052l1.157-8.009h-3.025l-1.157,8.009h-6.051l1.156-8.009h-2.848v-6.363h3.782
		l0.489-3.471h-2.848V522.895z M-984.643,532.728h3.025l0.489-3.471h-3.025L-984.643,532.728z"/>
	<path d="M-944.152,523.606V547.1h-6.985c-1.514,0-2.314-0.4-2.67-3.204c-2.002,1.869-4.36,3.604-7.965,3.604
		c-3.826,0-6.896-1.646-6.896-7.208v-16.686h9.878v14.639c0,1.78,0.935,2.136,2.759,2.136c0.667,0,1.424-0.134,2.002-0.312v-16.463
		H-944.152z"/>
	<path d="M-940.278,547.1v-23.493h7.029c1.469,0,2.314,0.489,2.67,3.293c1.958-1.958,4.628-3.738,8.365-3.738
		c3.648,0,6.451,1.603,6.451,6.808V547.1h-9.877v-14.505c0-1.691-0.802-2.047-2.626-2.047c-0.756,0-1.513,0.133-2.091,0.267V547.1
		H-940.278z"/>
	<path d="M-902.366,545.364v8.943h-9.922v-30.701h7.029c1.38,0,2.181,0.4,2.581,2.803c1.735-1.957,3.96-3.248,7.208-3.248
		c4.36,0,8.632,2.67,8.632,11.436c0,9.077-4.716,12.325-9.922,12.325C-899.251,546.922-901.031,546.388-902.366,545.364z
		 M-900.319,540.915c1.958,0,3.471-0.935,3.471-5.473c0-4.183-1.469-5.117-3.382-5.117c-0.623,0-1.424,0.178-2.136,0.4v9.7
		C-901.832,540.737-901.208,540.915-900.319,540.915z"/>
	<path d="M-871.128,545.009c-1.646,1.69-3.781,2.402-6.585,2.402c-3.871,0-7.297-2.225-7.297-6.941c0-4.983,3.604-7.208,9.121-7.208
		c1.646,0,3.025,0.089,4.271,0.312v-0.846c0-1.913-0.979-2.625-3.604-2.625c-2.092,0-3.871,0.578-4.939,1.201h-3.159v-6.318
		c2.136-0.89,5.829-1.824,10.323-1.824c7.697,0,11.257,2.536,11.257,8.854V547.1h-6.496
		C-869.926,547.1-870.728,546.299-871.128,545.009z M-871.618,541.315v-3.693c-0.578-0.089-1.29-0.178-1.824-0.178
		c-1.513,0-2.358,0.712-2.358,2.402c0,1.603,0.979,2.181,2.136,2.181C-872.953,542.027-872.196,541.716-871.618,541.315z"/>
	<path d="M-858.267,547.1v-23.493h6.541c2.803,0,3.337,0.801,3.337,4.672V547.1H-858.267z M-858.222,518.489
		c0-2.536,2.002-4.183,4.894-4.183c2.893,0,4.895,1.646,4.895,4.183s-2.002,4.139-4.895,4.139
		C-856.22,522.628-858.222,521.025-858.222,518.489z"/>
	<path d="M-844.74,545.676v-5.873h3.471c0.801,0.756,2.803,1.513,5.027,1.513c1.603,0,2.893-0.223,2.893-1.112
		c0-0.979-0.801-1.068-3.96-1.558c-4.806-0.667-7.742-2.18-7.742-7.475c0-5.562,4.583-7.965,10.634-7.965
		c4.139,0,6.452,0.578,8.677,1.424v5.784h-3.293c-1.023-0.667-2.625-1.246-4.895-1.246c-1.868,0-2.58,0.356-2.58,1.112
		c0,0.801,0.846,1.023,3.648,1.38c5.34,0.623,8.365,2.047,8.365,7.386c0,5.384-3.738,8.41-11.391,8.41
		C-840.246,547.456-842.782,546.61-844.74,545.676z"/>
	<path d="M-812.434,537.489c0.4,2.937,1.869,3.737,4.627,3.737c2.626,0,4.45-0.668,5.695-1.424h3.159v5.384
		c-2.313,1.246-5.25,2.313-10.411,2.313c-8.811,0-12.993-4.583-12.993-12.014c0-7.52,4.895-12.325,12.682-12.325
		c7.831,0,11.702,3.96,11.702,12.147c0,1.112-0.089,1.869-0.089,2.181H-812.434z M-812.479,532.95h5.429
		c-0.134-2.937-0.979-3.826-2.625-3.826C-811.055,529.124-812.167,529.791-812.479,532.95z"/>
	<path d="M-795.301,547.1v-23.493h7.029c1.469,0,2.314,0.489,2.67,3.293c1.958-1.958,4.628-3.738,8.365-3.738
		c3.648,0,6.451,1.603,6.451,6.808V547.1h-9.877v-14.505c0-1.691-0.802-2.047-2.626-2.047c-0.756,0-1.513,0.133-2.091,0.267V547.1
		H-795.301z"/>
	<path d="M-767.98,535.442c0-7.787,5.251-12.281,13.616-12.281c3.158,0,6.051,0.757,7.831,1.691v6.273h-3.382
		c-0.757-0.578-1.913-1.157-3.648-1.157c-2.67,0-4.36,1.646-4.36,5.562c0,3.737,1.513,5.473,4.227,5.473
		c1.958,0,3.07-0.667,3.96-1.38h3.248v5.785c-1.558,0.979-4.449,2.091-8.498,2.091C-763.085,547.5-767.98,543.495-767.98,535.442z"
		/>
	<path d="M-744.351,535.486c0-7.52,5.474-12.325,13.126-12.325c7.653,0,13.126,4.806,13.126,12.325
		c0,7.476-5.473,12.014-13.126,12.014C-738.877,547.5-744.351,542.962-744.351,535.486z M-728.11,535.531
		c0-4.139-1.157-5.874-3.115-5.874c-1.957,0-3.159,1.735-3.159,5.874c0,4.138,1.202,5.918,3.159,5.918
		C-729.267,541.449-728.11,539.669-728.11,535.531z"/>
	<path d="M-715.204,547.1v-23.493h7.029c1.469,0,2.314,0.489,2.67,3.382c1.958-2.225,4.494-3.827,7.92-3.827
		c2.804,0,5.117,0.979,6.007,3.738c2.047-2.225,4.761-3.738,8.099-3.738c3.604,0,6.362,1.691,6.362,6.808V547.1h-9.878v-14.505
		c0-1.691-0.756-2.047-2.536-2.047c-0.623,0-1.157,0.089-1.646,0.223V547.1h-9.922v-14.505c0-1.691-0.757-2.047-2.536-2.047
		c-0.623,0-1.157,0.089-1.646,0.178V547.1H-715.204z"/>
	<path d="M-648.948,523.606V547.1h-6.985c-1.514,0-2.314-0.4-2.67-3.204c-2.003,1.869-4.36,3.604-7.965,3.604
		c-3.826,0-6.896-1.646-6.896-7.208v-16.686h9.878v14.639c0,1.78,0.935,2.136,2.759,2.136c0.667,0,1.424-0.134,2.002-0.312v-16.463
		H-648.948z"/>
</g>
<g>
	<path d="M36.866,110.007V68.392c0-1.583-2.304-4.031-4.032-4.031h-3.6V45.929h51.263V64.36h-9.936v47.375
		c0,10.655,4.32,15.264,13.824,15.264c9.647,0,13.968-4.608,13.968-15.264V64.36h-9.937V45.929h42.768V64.36h-3.6
		c-1.584,0-3.889,2.448-3.889,4.031v41.615c0,25.056-14.256,37.872-43.055,37.872C51.41,147.879,36.866,135.062,36.866,110.007z"/>
	<path d="M134.64,129.015h3.6c1.44,0,3.6-2.304,3.6-3.6V93.159c0-1.439-2.159-3.6-3.6-3.6h-4.032V70.696h32.976
		c2.88,0,6.048,1.728,6.048,13.968v44.351h8.496v17.712H134.64V129.015z M177.551,92.728V77.032
		c5.903-4.608,13.248-7.776,22.607-7.776c10.08,0,19.584,4.176,19.584,18.144v38.016c0,1.439,2.159,3.6,3.6,3.6h2.304v17.712
		h-37.295V99.495c0-5.615-2.736-6.768-9.216-6.768H177.551z"/>
	<path d="M299.513,129.015h10.655v17.712H257.61v-17.712h4.176c1.728,0,4.032-2.592,4.032-4.176V68.392
		c0-1.583-2.305-4.031-4.032-4.031h-4.176V45.929h41.903V129.015z M303.833,110.728V92.872h0.576
		c9.072,0,12.384-5.761,12.384-13.681c0-8.063-3.312-13.535-12.384-13.535h-0.576V45.929h2.88c29.52,0,43.199,9.647,43.199,32.399
		c0,22.319-15.407,32.399-44.639,32.399H303.833z"/>
	<path d="M388.789,129.879l2.592,12.815c-5.184,3.889-11.808,5.04-17.711,5.04c-12.672,0-23.616-7.056-23.616-21.743
		c0-16.56,11.664-23.76,29.52-23.76c3.601,0,6.624,0.144,9.504,0.432v13.104c-0.576-0.145-1.151-0.145-1.728-0.145
		c-5.04,0-7.776,1.872-7.776,7.488c0,5.472,3.024,6.911,6.912,6.911C387.349,130.022,388.069,130.022,388.789,129.879z
		 M393.397,98.632c0-5.328-2.88-7.776-10.224-7.776c-7.776,0-11.809,2.736-14.832,5.185h-13.104V74.584
		c8.063-2.88,20.016-5.328,35.567-5.328c23.903,0,34.126,7.92,34.126,25.775v30.384c0,1.439,2.016,3.6,3.457,3.6h2.447v14.976
		c-4.463,2.448-10.512,4.032-18,4.032c-9.792,0-19.439-3.168-19.439-19.439V98.632z"/>
	<path d="M435.73,129.015h3.744c1.439,0,3.455-2.16,3.455-3.6V93.159c0-1.296-2.016-3.6-3.455-3.6h-4.176V70.696h34.703
		c2.881,0,4.465,2.592,4.465,7.344v47.375c0,1.439,2.158,3.6,3.6,3.6h3.744v17.712h-46.08V129.015z M450.418,45.064h28.656v8.063
		l-14.4,12.528h-17.711L450.418,45.064z"/>
	<path d="M518.096,148.022v-18.575c4.32-0.145,7.199-1.729,7.199-4.608c0-3.168-2.447-3.888-12.24-4.896
		c-16.559-1.872-26.207-7.92-26.207-25.056c0-17.424,13.393-25.487,34.703-25.632v18.432c-5.184,0.288-6.912,1.729-6.912,4.032
		c0,2.592,2.305,3.6,11.377,4.752c18.863,2.304,28.512,6.624,28.512,24.335c0,17.712-10.656,27.216-36,27.216H518.096z
		 M513.775,129.447v18.575c-12.527-0.288-20.736-2.16-26.783-4.176v-21.168h16.559C505.424,126.135,509.311,128.727,513.775,129.447
		z M525.871,87.688V69.256c11.52,0.288,19.152,1.872,25.775,3.888v19.872H535.23C533.215,90.279,530.191,88.264,525.871,87.688z"/>
	<path d="M71.423,247.303v18.72c-32.832-0.864-43.487-15.119-43.487-38.879c0-23.616,14.688-38.88,38.879-39.888v18.288
		c-4.176,0.576-7.632,5.472-7.632,20.735C59.183,242.263,62.639,246.438,71.423,247.303z M63.792,218.647h13.823
		c-0.144-9.359-2.448-12.527-6.479-13.248v-18.144c24.335,0.72,35.855,12.816,35.855,38.735c0,3.6-0.288,6.48-0.288,7.488H63.792
		V218.647z M75.743,266.022v-18.863c5.616-0.288,9.216-2.88,11.664-6.336h16.56v18.287C97.63,262.711,87.838,265.591,75.743,266.022
		z"/>
	<path d="M111.453,247.015h3.6c1.44,0,3.6-2.304,3.6-3.6v-32.256c0-1.439-2.159-3.6-3.6-3.6h-4.032v-18.863h32.976
		c2.88,0,6.048,1.728,6.048,13.968v44.351h8.496v17.712h-47.087V247.015z M154.364,210.728v-15.695
		c5.903-4.608,13.248-7.776,22.607-7.776c10.08,0,19.584,4.176,19.584,18.144v38.016c0,1.439,2.159,3.6,3.6,3.6h2.304v17.712
		h-37.295v-47.231c0-5.615-2.736-6.768-9.216-6.768H154.364z"/>
	<path d="M227.367,215.336c0-34.271,18.576-52.56,49.535-52.56c3.744,0,7.488,0.288,10.656,1.152v20.88h-3.601
		c-12.672,0-20.447,7.056-20.447,29.087c0,19.296,4.607,29.231,16.271,30.384v22.031h-0.72
		C245.367,266.311,227.367,248.455,227.367,215.336z M284.102,266.311v-22.031c7.056-0.721,12.815-4.752,16.271-10.08h16.703v21.743
		C309.013,261.415,297.206,265.446,284.102,266.311z M291.877,184.809v-20.88h24.768v35.999H295.19L291.877,184.809z"/>
	<path d="M363.156,187.256v20.735c-5.473,0.864-8.784,7.2-8.784,19.296c0,12.24,3.312,18.864,8.784,19.872v18.863
		c-23.76-0.864-40.607-15.407-40.607-38.879C322.548,203.527,339.396,188.12,363.156,187.256z M367.475,266.022v-18.863
		c5.184-1.008,8.64-7.632,8.64-19.872c0-12.096-3.456-18.432-8.64-19.296v-20.735c23.615,0.864,40.464,16.271,40.464,39.888
		C407.939,250.615,391.09,265.158,367.475,266.022z"/>
	<path d="M411.829,247.015h3.6c1.44,0,3.6-2.304,3.6-3.6v-32.256c0-1.439-2.159-3.6-3.6-3.6h-4.032v-18.863h32.975
		c2.881,0,6.049,1.728,6.049,13.968v44.351h8.496v17.712h-47.087V247.015z M454.74,210.728v-15.552
		c5.184-4.464,11.664-7.92,20.879-7.92c12.096,0,19.439,5.616,19.439,18.288v41.471h6.768v17.712h-38.158v-47.375
		c0-5.616-1.152-6.624-7.633-6.624H454.74z M499.379,210.728v-15.552c5.328-4.607,11.664-7.92,20.879-7.92
		c9.936,0,19.439,4.176,19.439,18.144v38.016c0,1.439,2.16,3.6,3.602,3.6h2.303v17.712h-37.439v-47.375
		c0-5.616-1.008-6.624-7.488-6.624H499.379z"/>
	<path d="M595.855,243.271v15.408c-5.76,4.464-12.527,7.344-22.031,7.344c-10.08,0-20.16-4.176-20.16-18.144v-36.72
		c0-1.439-2.16-3.6-3.455-3.6h-3.025v-18.863h38.016v47.375c0,5.903,3.025,7.199,9.361,7.199H595.855z M584.912,163.064h28.654
		v8.063l-14.398,12.528h-17.713L584.912,163.064z M600.176,207.56h-7.633v-18.863h39.168v54.719c0,1.296,2.016,3.6,3.455,3.6h3.312
		v17.712h-32.256c-2.879,0-6.047-2.304-6.047-13.968V207.56z"/>
	<path d="M34.834,306.521h3.737l1.068-6.941h6.051l-1.067,6.941h3.07l1.023-6.941h6.051l-1.023,6.941h2.804v6.362H52.81
		l-0.489,3.471h2.804v6.363h-3.738l-1.156,8.009h-6.052l1.157-8.009H42.31l-1.157,8.009h-6.051l1.156-8.009h-2.848v-6.363h3.782
		l0.489-3.471h-2.848V306.521z M43.245,316.354h3.025l0.489-3.471h-3.025L43.245,316.354z"/>
	<path d="M83.736,307.233v23.493H76.75c-1.514,0-2.314-0.4-2.67-3.204c-2.003,1.869-4.36,3.604-7.965,3.604
		c-3.826,0-6.896-1.646-6.896-7.208v-16.686h9.878v14.639c0,1.78,0.935,2.136,2.759,2.136c0.667,0,1.424-0.134,2.002-0.312v-16.463
		H83.736z"/>
	<path d="M87.609,330.727v-23.493h7.03c1.469,0,2.314,0.489,2.67,3.293c1.958-1.958,4.628-3.738,8.365-3.738
		c3.648,0,6.451,1.603,6.451,6.808v17.131h-9.877v-14.505c0-1.691-0.802-2.047-2.626-2.047c-0.756,0-1.513,0.133-2.091,0.267v16.285
		H87.609z"/>
	<path d="M125.522,328.991v8.943h-9.923v-30.701h7.03c1.38,0,2.181,0.4,2.581,2.803c1.735-1.957,3.96-3.248,7.208-3.248
		c4.36,0,8.632,2.67,8.632,11.436c0,9.077-4.716,12.325-9.922,12.325C128.636,330.549,126.857,330.015,125.522,328.991z
		 M127.569,324.542c1.958,0,3.471-0.935,3.471-5.473c0-4.183-1.469-5.117-3.382-5.117c-0.623,0-1.424,0.178-2.136,0.4v9.7
		C126.056,324.364,126.679,324.542,127.569,324.542z"/>
	<path d="M156.759,328.636c-1.646,1.69-3.781,2.402-6.585,2.402c-3.871,0-7.297-2.225-7.297-6.941c0-4.983,3.604-7.208,9.121-7.208
		c1.646,0,3.025,0.089,4.271,0.312v-0.846c0-1.913-0.979-2.625-3.604-2.625c-2.092,0-3.871,0.578-4.939,1.201h-3.159v-6.318
		c2.136-0.89,5.829-1.824,10.323-1.824c7.697,0,11.257,2.536,11.257,8.854v15.084h-6.496
		C157.961,330.727,157.16,329.926,156.759,328.636z M156.27,324.942v-3.693c-0.578-0.089-1.29-0.178-1.824-0.178
		c-1.513,0-2.358,0.712-2.358,2.402c0,1.603,0.979,2.181,2.136,2.181C154.935,325.654,155.692,325.343,156.27,324.942z"/>
	<path d="M169.621,330.727v-23.493h6.541c2.803,0,3.337,0.801,3.337,4.672v18.821H169.621z M169.666,302.116
		c0-2.536,2.002-4.183,4.895-4.183c2.892,0,4.894,1.646,4.894,4.183s-2.002,4.139-4.894,4.139
		C171.667,306.255,169.666,304.652,169.666,302.116z"/>
	<path d="M183.148,329.303v-5.873h3.471c0.801,0.756,2.803,1.513,5.027,1.513c1.602,0,2.893-0.223,2.893-1.112
		c0-0.979-0.801-1.068-3.96-1.558c-4.806-0.667-7.742-2.18-7.742-7.475c0-5.562,4.583-7.965,10.634-7.965
		c4.139,0,6.452,0.578,8.677,1.424v5.784h-3.293c-1.023-0.667-2.625-1.246-4.894-1.246c-1.869,0-2.581,0.356-2.581,1.112
		c0,0.801,0.846,1.023,3.648,1.38c5.339,0.623,8.365,2.047,8.365,7.386c0,5.384-3.737,8.41-11.391,8.41
		C187.642,331.083,185.106,330.237,183.148,329.303z"/>
	<path d="M215.453,321.116c0.4,2.937,1.869,3.737,4.627,3.737c2.626,0,4.45-0.668,5.695-1.424h3.159v5.384
		c-2.313,1.246-5.25,2.313-10.411,2.313c-8.811,0-12.993-4.583-12.993-12.014c0-7.52,4.895-12.325,12.682-12.325
		c7.831,0,11.702,3.96,11.702,12.147c0,1.112-0.089,1.869-0.089,2.181H215.453z M215.408,316.577h5.429
		c-0.134-2.937-0.979-3.826-2.625-3.826C216.832,312.751,215.719,313.418,215.408,316.577z"/>
	<path d="M232.585,330.727v-23.493h7.03c1.469,0,2.314,0.489,2.67,3.293c1.958-1.958,4.628-3.738,8.365-3.738
		c3.648,0,6.451,1.603,6.451,6.808v17.131h-9.877v-14.505c0-1.691-0.802-2.047-2.626-2.047c-0.756,0-1.513,0.133-2.091,0.267v16.285
		H232.585z"/>
	<path d="M259.908,319.069c0-7.787,5.251-12.281,13.616-12.281c3.159,0,6.051,0.757,7.831,1.691v6.273h-3.382
		c-0.757-0.578-1.913-1.157-3.648-1.157c-2.67,0-4.36,1.646-4.36,5.562c0,3.737,1.513,5.473,4.227,5.473
		c1.958,0,3.07-0.667,3.96-1.38h3.248v5.785c-1.558,0.979-4.449,2.091-8.498,2.091C264.802,331.127,259.908,327.122,259.908,319.069
		z"/>
	<path d="M283.537,319.113c0-7.52,5.474-12.325,13.126-12.325c7.653,0,13.126,4.806,13.126,12.325
		c0,7.476-5.473,12.014-13.126,12.014C289.01,331.127,283.537,326.589,283.537,319.113z M299.778,319.158
		c0-4.139-1.157-5.874-3.115-5.874c-1.957,0-3.159,1.735-3.159,5.874c0,4.138,1.202,5.918,3.159,5.918
		C298.621,325.076,299.778,323.296,299.778,319.158z"/>
	<path d="M312.683,330.727v-23.493h7.03c1.469,0,2.314,0.489,2.67,3.382c1.958-2.225,4.494-3.827,7.92-3.827
		c2.804,0,5.117,0.979,6.007,3.738c2.047-2.225,4.761-3.738,8.099-3.738c3.604,0,6.362,1.691,6.362,6.808v17.131h-9.878v-14.505
		c0-1.691-0.756-2.047-2.536-2.047c-0.623,0-1.157,0.089-1.646,0.223v16.329h-9.922v-14.505c0-1.691-0.757-2.047-2.536-2.047
		c-0.623,0-1.157,0.089-1.646,0.178v16.374H312.683z"/>
	<path d="M378.94,307.233v23.493h-6.985c-1.514,0-2.314-0.4-2.67-3.204c-2.002,1.869-4.36,3.604-7.965,3.604
		c-3.826,0-6.896-1.646-6.896-7.208v-16.686h9.878v14.639c0,1.78,0.935,2.136,2.759,2.136c0.667,0,1.424-0.134,2.002-0.312v-16.463
		H378.94z"/>
</g>
<text transform="matrix(1 0 0 1 -3063.2666 149.0996)"><tspan x="0" y="0" font-family="'StagStencil-Bold'" font-size="143.9971">Un</tspan><tspan x="0" y="118" font-family="'StagStencil-Bold'" font-size="143.9971" letter-spacing="-4">P</tspan><tspan x="92.876" y="118" font-family="'StagStencil-Bold'" font-size="143.9971">aí</tspan><tspan x="229.526" y="118" font-family="'StagStencil-Bold'" font-size="143.9971">s </tspan><tspan x="0" y="217" font-family="'StagStencil-Bold'" font-size="143.9971">en</tspan><tspan x="0" y="338" font-family="'StagStencil-Bold'" font-size="143.9971">C</tspan><tspan x="95.613" y="338" font-family="'StagStencil-Bold'" font-size="143.9971">o</tspan><tspan x="185.611" y="338" font-family="'StagStencil-Bold'" font-size="143.9971" letter-spacing="-2">m</tspan><tspan x="321.4" y="338" font-family="'StagStencil-Bold'" font-size="143.9971">ú</tspan><tspan x="0" y="398" font-family="'StagSans-Bold'" font-size="44.4991" letter-spacing="-3"> </tspan><tspan x="3.693" y="398" font-family="'StagSans-Bold'" font-size="44.4991">#</tspan><tspan x="28.656" y="398" font-family="'StagSans-Bold'" font-size="44.4991">u</tspan><tspan x="57.002" y="398" font-family="'StagSans-Bold'" font-size="44.4991">n</tspan><tspan x="84.992" y="398" font-family="'StagSans-Bold'" font-size="44.4991">p</tspan><tspan x="113.427" y="398" font-family="'StagSans-Bold'" font-size="44.4991">a</tspan><tspan x="138.969" y="398" font-family="'StagSans-Bold'" font-size="44.4991">is</tspan><tspan x="176.036" y="398" font-family="'StagSans-Bold'" font-size="44.4991">e</tspan><tspan x="201.979" y="398" font-family="'StagSans-Bold'" font-size="44.4991">nco</tspan><tspan x="282.076" y="398" font-family="'StagSans-Bold'" font-size="44.4991">m</tspan><tspan x="323.86" y="398" font-family="'StagSans-Bold'" font-size="44.4991">u</tspan></text>
<text transform="matrix(1 0 0 1 -2036.269 146.7266)"><tspan x="0" y="0" font-family="'Stag-Bold'" font-size="143.9971">U</tspan><tspan x="104.542" y="0" font-family="'StagStencil-Bold'" font-size="143.9971">n</tspan><tspan x="199.866" y="0" font-family="'StagStencil-Bold'" font-size="143.9971" letter-spacing="3"> </tspan><tspan x="226.504" y="0" font-family="'StagStencil-Bold'" font-size="143.9971" letter-spacing="-4">P</tspan><tspan x="319.38" y="0" font-family="'StagStencil-Bold'" font-size="143.9971">aí</tspan><tspan x="456.03" y="0" font-family="'StagStencil-Bold'" font-size="143.9971">s </tspan><tspan x="0" y="118" font-family="'StagStencil-Bold'" font-size="143.9971" letter-spacing="-25"> </tspan><tspan x="-2.162" y="118" font-family="'StagStencil-Bold'" font-size="143.9971">en </tspan><tspan x="199.717" y="118" font-family="'StagStencil-Bold'" font-size="143.9971">C</tspan><tspan x="295.33" y="118" font-family="'StagStencil-Bold'" font-size="143.9971">o</tspan><tspan x="385.329" y="118" font-family="'StagStencil-Bold'" font-size="143.9971" letter-spacing="-2">m</tspan><tspan x="521.117" y="118" font-family="'StagStencil-Bold'" font-size="143.9971">ú</tspan><tspan x="0.89" y="184" font-family="'StagSans-Bold'" font-size="44.4991" letter-spacing="-3"> </tspan><tspan x="4.583" y="184" font-family="'StagSans-Bold'" font-size="44.4991">#</tspan><tspan x="29.546" y="184" font-family="'StagSans-Bold'" font-size="44.4991">u</tspan><tspan x="57.892" y="184" font-family="'StagSans-Bold'" font-size="44.4991">n</tspan><tspan x="85.882" y="184" font-family="'StagSans-Bold'" font-size="44.4991">p</tspan><tspan x="114.316" y="184" font-family="'StagSans-Bold'" font-size="44.4991">a</tspan><tspan x="139.858" y="184" font-family="'StagSans-Bold'" font-size="44.4991">is</tspan><tspan x="176.925" y="184" font-family="'StagSans-Bold'" font-size="44.4991">e</tspan><tspan x="202.868" y="184" font-family="'StagSans-Bold'" font-size="44.4991">nco</tspan><tspan x="282.966" y="184" font-family="'StagSans-Bold'" font-size="44.4991">m</tspan><tspan x="324.75" y="184" font-family="'StagSans-Bold'" font-size="44.4991">u</tspan></text>
</svg>
